<svg width="28" height="38" viewBox="0 0 28 38" fill="none" xmlns="http://www.w3.org/2000/svg">
<path d="M22.5909 13.75H21.3636V7.5C21.3636 5.51088 20.5878 3.60322 19.2069 2.1967C17.8259 0.790176 15.953 0 14 0C12.047 0 10.1741 0.790176 8.79312 2.1967C7.41217 3.60322 6.63636 5.51088 6.63636 7.5V13.75H5.40909C4.10756 13.7514 2.85973 14.2787 1.93941 15.2161C1.01908 16.1534 0.501421 17.4244 0.5 18.75V32.5C0.501421 33.8256 1.01908 35.0966 1.93941 36.0339C2.85973 36.9713 4.10756 37.4986 5.40909 37.5H22.5909C23.8924 37.4986 25.1403 36.9713 26.0606 36.0339C26.9809 35.0966 27.4986 33.8256 27.5 32.5V18.75C27.4986 17.4244 26.9809 16.1534 26.0606 15.2161C25.1403 14.2787 23.8924 13.7514 22.5909 13.75ZM18.9091 13.75H9.09091V7.5C9.09091 6.17392 9.60812 4.90215 10.5287 3.96447C11.4494 3.02678 12.698 2.5 14 2.5C15.302 2.5 16.5506 3.02678 17.4713 3.96447C18.3919 4.90215 18.9091 6.17392 18.9091 7.5V13.75Z" fill="white"/>
</svg>
