<svg width="32" height="32" viewBox="0 0 32 32" fill="none" xmlns="http://www.w3.org/2000/svg">
<path d="M25.5 30H11.5C10.3065 30 9.16193 29.5259 8.31802 28.682C7.47411 27.8381 7 26.6935 7 25.5V11.5C7 10.3065 7.47411 9.16193 8.31802 8.31802C9.16193 7.47411 10.3065 7 11.5 7H25.5C26.6935 7 27.8381 7.47411 28.682 8.31802C29.5259 9.16193 30 10.3065 30 11.5V25.5C30 26.6935 29.5259 27.8381 28.682 28.682C27.8381 29.5259 26.6935 30 25.5 30V30Z" fill="white"/>
<path d="M10 5H24.7425C24.4314 4.12328 23.8566 3.3643 23.097 2.82718C22.3374 2.29006 21.4303 2.00112 20.5 2H6.5C5.30653 2 4.16193 2.47411 3.31802 3.31802C2.47411 4.16193 2 5.30653 2 6.5V20.5C2.00112 21.4303 2.29006 22.3374 2.82718 23.097C3.3643 23.8566 4.12328 24.4314 5 24.7425V10C5 8.67392 5.52678 7.40215 6.46447 6.46447C7.40215 5.52678 8.67392 5 10 5V5Z" fill="white"/>
</svg>
