<svg width="46" height="39" viewBox="0 0 46 39" fill="none" xmlns="http://www.w3.org/2000/svg">
<path d="M28.2878 28.2878V32.6691C28.2878 33.8311 27.8262 34.9455 27.0045 35.7671C26.1829 36.5888 25.0685 37.0504 23.9065 37.0504H6.38129C5.2193 37.0504 4.1049 36.5888 3.28325 35.7671C2.4616 34.9455 2 33.8311 2 32.6691V6.38129C2 5.2193 2.4616 4.1049 3.28325 3.28325C4.1049 2.4616 5.2193 2 6.38129 2H23.0302C25.4498 2 28.2878 3.96172 28.2878 6.38129V10.7626" stroke="white" stroke-width="3" stroke-linecap="round" stroke-linejoin="round"/>
<path d="M35.2374 28.2878L44 19.5252L35.2374 10.7626" stroke="white" stroke-width="3" stroke-linecap="round" stroke-linejoin="round"/>
<path d="M14.2375 19.5253H42.1872" stroke="white" stroke-width="3" stroke-linecap="round" stroke-linejoin="round"/>
</svg>
