<svg width="67" height="67" viewBox="0 0 67 67" fill="none" xmlns="http://www.w3.org/2000/svg">
<path d="M63.2221 32.1103C60.4466 19.5622 56.2695 12.8648 50.0734 11.0354C48.7709 10.6534 47.4198 10.4625 46.0625 10.4688C44.2684 10.4688 42.706 10.9058 41.0532 11.3691C39.0615 11.9279 36.799 12.5625 33.5 12.5625C30.201 12.5625 27.9372 11.9292 25.9416 11.3704C24.2875 10.9058 22.7264 10.4688 20.9375 10.4688C19.5339 10.4639 18.1365 10.6542 16.7853 11.0341C10.6219 12.8557 6.44744 19.5504 3.63135 32.1025C0.603261 45.6098 2.09375 54.1379 7.811 56.1165C8.59469 56.3927 9.41927 56.5351 10.2502 56.5378C14.1668 56.5378 17.3075 53.2755 19.4536 50.6047C21.8784 47.5818 24.7167 46.0481 33.5 46.0481C41.345 46.0481 44.5917 47.112 47.396 50.6047C49.1586 52.8005 50.8245 54.3368 52.4864 55.3038C54.6966 56.5889 56.9055 56.8741 59.0503 56.1374C62.4291 54.9845 64.3658 51.9368 64.8081 47.0767C65.1444 43.3498 64.6262 38.4544 63.2221 32.1103ZM27.2188 31.4063H23.0313V35.5938C23.0313 36.1491 22.8107 36.6816 22.418 37.0743C22.0254 37.4669 21.4928 37.6875 20.9375 37.6875C20.3822 37.6875 19.8497 37.4669 19.457 37.0743C19.0643 36.6816 18.8438 36.1491 18.8438 35.5938V31.4063H14.6563C14.101 31.4063 13.5684 31.1857 13.1757 30.793C12.7831 30.4004 12.5625 29.8678 12.5625 29.3125C12.5625 28.7572 12.7831 28.2247 13.1757 27.832C13.5684 27.4394 14.101 27.2188 14.6563 27.2188H18.8438V23.0313C18.8438 22.476 19.0643 21.9434 19.457 21.5508C19.8497 21.1581 20.3822 20.9375 20.9375 20.9375C21.4928 20.9375 22.0254 21.1581 22.418 21.5508C22.8107 21.9434 23.0313 22.476 23.0313 23.0313V27.2188H27.2188C27.7741 27.2188 28.3066 27.4394 28.6993 27.832C29.0919 28.2247 29.3125 28.7572 29.3125 29.3125C29.3125 29.8678 29.0919 30.4004 28.6993 30.793C28.3066 31.1857 27.7741 31.4063 27.2188 31.4063ZM38.2109 31.9297C37.6933 31.9297 37.1873 31.7762 36.7569 31.4886C36.3265 31.2011 35.9911 30.7923 35.793 30.3141C35.5949 29.8359 35.5431 29.3096 35.644 28.8019C35.745 28.2943 35.9943 27.8279 36.3603 27.4619C36.7263 27.0959 37.1927 26.8466 37.7004 26.7456C38.208 26.6446 38.7343 26.6965 39.2125 26.8946C39.6907 27.0927 40.0995 27.4281 40.3871 27.8585C40.6746 28.2889 40.8281 28.7949 40.8281 29.3125C40.8281 30.0067 40.5524 30.6723 40.0616 31.1632C39.5708 31.654 38.9051 31.9297 38.2109 31.9297V31.9297ZM43.9688 37.6875C43.4509 37.6875 42.9446 37.5339 42.5141 37.246C42.0835 36.9581 41.7481 36.549 41.5502 36.0704C41.3523 35.5918 41.3008 35.0652 41.4023 34.5573C41.5039 34.0495 41.7538 33.5832 42.1205 33.2174C42.4871 32.8516 42.9541 32.6029 43.4622 32.5026C43.9703 32.4024 44.4967 32.4552 44.9749 32.6543C45.453 32.8534 45.8613 33.1898 46.1481 33.6211C46.4348 34.0523 46.5872 34.559 46.5859 35.0769C46.5842 35.7699 46.3077 36.4339 45.8171 36.9233C45.3265 37.4127 44.6617 37.6875 43.9688 37.6875V37.6875ZM43.9688 26.1719C43.4511 26.1719 42.9451 26.0184 42.5147 25.7308C42.0843 25.4432 41.7489 25.0345 41.5508 24.5563C41.3527 24.078 41.3009 23.5518 41.4019 23.0441C41.5028 22.5364 41.7521 22.0701 42.1181 21.7041C42.4841 21.3381 42.9505 21.0888 43.4582 20.9878C43.9659 20.8868 44.4921 20.9387 44.9703 21.1368C45.4485 21.3348 45.8573 21.6703 46.1449 22.1007C46.4325 22.5311 46.5859 23.0371 46.5859 23.5547C46.5859 24.2488 46.3102 24.9145 45.8194 25.4053C45.3286 25.8962 44.6629 26.1719 43.9688 26.1719ZM49.7266 31.9297C49.2089 31.9297 48.7029 31.7762 48.2725 31.4886C47.8421 31.2011 47.5067 30.7923 47.3086 30.3141C47.1105 29.8359 47.0587 29.3096 47.1597 28.8019C47.2607 28.2943 47.5099 27.8279 47.8759 27.4619C48.242 27.0959 48.7083 26.8466 49.216 26.7456C49.7237 26.6446 50.2499 26.6965 50.7281 26.8946C51.2064 27.0927 51.6151 27.4281 51.9027 27.8585C52.1903 28.2889 52.3438 28.7949 52.3438 29.3125C52.3438 30.0067 52.068 30.6723 51.5772 31.1632C51.0864 31.654 50.4207 31.9297 49.7266 31.9297V31.9297Z" fill="white"/>
</svg>
