<svg width="28" height="38" viewBox="0 0 28 38" fill="none" xmlns="http://www.w3.org/2000/svg">
<path d="M22.5909 14.25H9.09091V8C9.09091 6.67392 9.60812 5.40215 10.5287 4.46447C11.4494 3.52678 12.698 3 14 3C15.302 3 16.5506 3.52678 17.4713 4.46447C18.3919 5.40215 18.9091 6.67392 18.9091 8C18.9091 8.33152 19.0384 8.64946 19.2686 8.88388C19.4987 9.1183 19.8109 9.25 20.1364 9.25C20.4619 9.25 20.774 9.1183 21.0042 8.88388C21.2343 8.64946 21.3636 8.33152 21.3636 8C21.3636 6.01088 20.5878 4.10322 19.2069 2.6967C17.8259 1.29018 15.953 0.5 14 0.5C12.047 0.5 10.1741 1.29018 8.79312 2.6967C7.41217 4.10322 6.63636 6.01088 6.63636 8V14.25H5.40909C4.10756 14.2514 2.85973 14.7787 1.93941 15.7161C1.01908 16.6534 0.501421 17.9244 0.5 19.25V33C0.501421 34.3256 1.01908 35.5966 1.93941 36.5339C2.85973 37.4713 4.10756 37.9986 5.40909 38H22.5909C23.8924 37.9986 25.1403 37.4713 26.0606 36.5339C26.9809 35.5966 27.4986 34.3256 27.5 33V19.25C27.4986 17.9244 26.9809 16.6534 26.0606 15.7161C25.1403 14.7787 23.8924 14.2514 22.5909 14.25Z" fill="white"/>
</svg>
