<svg width="27" height="42" viewBox="0 0 27 42" fill="none" xmlns="http://www.w3.org/2000/svg">
<path d="M7.71429 0H1.92857C1.41708 0 0.926543 0.201134 0.564866 0.559158C0.203189 0.917183 0 1.40277 0 1.90909V40.0909C0 40.5972 0.203189 41.0828 0.564866 41.4408C0.926543 41.7989 1.41708 42 1.92857 42H7.71429C8.22577 42 8.71631 41.7989 9.07799 41.4408C9.43967 41.0828 9.64286 40.5972 9.64286 40.0909V1.90909C9.64286 1.40277 9.43967 0.917183 9.07799 0.559158C8.71631 0.201134 8.22577 0 7.71429 0Z" fill="#4D4D4D"/>
<path d="M25.0714 0H19.2857C18.7742 0 18.2837 0.201134 17.922 0.559158C17.5603 0.917183 17.3571 1.40277 17.3571 1.90909V40.0909C17.3571 40.5972 17.5603 41.0828 17.922 41.4408C18.2837 41.7989 18.7742 42 19.2857 42H25.0714C25.5829 42 26.0735 41.7989 26.4351 41.4408C26.7968 41.0828 27 40.5972 27 40.0909V1.90909C27 1.40277 26.7968 0.917183 26.4351 0.559158C26.0735 0.201134 25.5829 0 25.0714 0Z" fill="#4D4D4D"/>
</svg>
