<svg width="50" height="50" viewBox="0 0 50 50" fill="none" xmlns="http://www.w3.org/2000/svg">
<path d="M32.6529 25C30.7068 25 28.8251 24.1035 27.3523 22.4766C25.9202 20.8896 25.0456 18.7734 24.8913 16.5195C24.7266 14.1152 25.4374 11.9043 26.8922 10.293C28.3471 8.68164 30.3812 7.8125 32.6529 7.8125C34.9085 7.8125 36.9482 8.69727 38.3983 10.3047C39.8626 11.9277 40.5754 14.1348 40.4107 16.5186C40.2526 18.7754 39.379 20.8906 37.9497 22.4756C36.4807 24.1035 34.5999 25 32.6529 25Z" fill="black"/>
<path d="M45.131 42.1875H20.1756C19.7744 42.1897 19.378 42.0969 19.017 41.9163C18.656 41.7356 18.3399 41.4719 18.0932 41.1455C17.8315 40.7916 17.6508 40.3812 17.5645 39.9451C17.4783 39.5089 17.4888 39.0583 17.5953 38.627C18.3923 35.3252 20.3668 32.5869 23.3048 30.709C25.9125 29.043 29.232 28.125 32.6528 28.125C36.1408 28.125 39.3732 29.0039 41.9961 30.6689C44.9408 32.5371 46.9181 35.291 47.7113 38.6328C47.8165 39.0645 47.8258 39.5151 47.7386 39.951C47.6514 40.387 47.4699 40.7969 47.2077 41.1504C46.9612 41.4753 46.6459 41.7377 46.286 41.9175C45.926 42.0973 45.5309 42.1896 45.131 42.1875Z" fill="black"/>
<path d="M14.7633 25.3906C11.4325 25.3906 8.50387 22.1953 8.23221 18.2686C8.09781 16.2568 8.70548 14.3965 9.93598 13.0322C11.1532 11.6816 12.8702 10.9375 14.7633 10.9375C16.6564 10.9375 18.3601 11.6855 19.584 13.0439C20.824 14.4189 21.4298 16.2754 21.2878 18.2705C21.0161 22.1963 18.0885 25.3906 14.7633 25.3906Z" fill="black"/>
<path d="M20.9783 28.4619C19.3133 27.6221 17.1524 27.2021 14.7642 27.2021C11.9757 27.2021 9.2677 27.9522 7.13799 29.3135C4.72338 30.8594 3.09912 33.1104 2.44317 35.8281C2.34718 36.219 2.3381 36.6273 2.41661 37.0223C2.49513 37.4174 2.6592 37.789 2.89656 38.1094C3.12179 38.4077 3.41033 38.6487 3.73999 38.814C4.06965 38.9792 4.43165 39.0642 4.79815 39.0625H15.3047C15.482 39.0625 15.6537 38.9983 15.7899 38.881C15.926 38.7638 16.0179 38.6009 16.0496 38.4209C16.06 38.3594 16.0733 38.2979 16.0884 38.2373C16.8911 34.9111 18.7719 32.1006 21.5509 30.0518C21.6531 29.9757 21.7353 29.8746 21.7901 29.7575C21.8449 29.6405 21.8704 29.5111 21.8645 29.3813C21.8586 29.2514 21.8214 29.1252 21.7562 29.0139C21.691 28.9026 21.6 28.8099 21.4913 28.7441C21.3427 28.6543 21.1723 28.5596 20.9783 28.4619Z" fill="black"/>
</svg>
