<svg width="40" height="40" viewBox="0 0 40 40" fill="none" xmlns="http://www.w3.org/2000/svg">
<path d="M25.6965 5.04531C24.2229 3.40391 22.1648 2.5 19.8931 2.5C17.6093 2.5 15.5443 3.39844 14.0776 5.02969C12.5949 6.67891 11.8725 8.92031 12.0421 11.3406C12.3783 16.1156 15.9002 20 19.8931 20C23.8859 20 27.4018 16.1164 27.7433 11.3422C27.9152 8.94375 27.1882 6.70703 25.6965 5.04531Z" fill="black"/>
<path d="M33.2204 37.5H6.5659C6.21702 37.5047 5.87151 37.4291 5.55452 37.2787C5.23752 37.1282 4.95702 36.9068 4.73341 36.6305C4.24121 36.0234 4.04281 35.1945 4.18972 34.3563C4.82882 30.6984 6.82336 27.6258 9.95829 25.4688C12.7434 23.5539 16.2713 22.5 19.8931 22.5C23.515 22.5 27.0429 23.5547 29.828 25.4688C32.9629 27.625 34.9574 30.6977 35.5965 34.3555C35.7434 35.1938 35.545 36.0227 35.0529 36.6297C34.8293 36.9062 34.5488 37.1277 34.2318 37.2783C33.9148 37.4288 33.5693 37.5046 33.2204 37.5Z" fill="black"/>
</svg>
