<svg width="17" height="19" viewBox="0 0 17 19" fill="none" xmlns="http://www.w3.org/2000/svg">
<path d="M2.25618 0C1.93999 0.000587463 1.62939 0.083683 1.35495 0.241114C0.736964 0.592199 0.352783 1.27372 0.352783 2.01358V16.9863C0.352783 17.7283 0.736964 18.4077 1.35495 18.7588C1.63593 18.9207 1.95512 19.0039 2.27917 18.9999C2.60323 18.9958 2.92023 18.9045 3.19706 18.7356L15.961 11.0757C16.227 10.9085 16.4463 10.6763 16.5983 10.4008C16.7503 10.1254 16.8301 9.81577 16.8301 9.50099C16.8301 9.1862 16.7503 8.87658 16.5983 8.60114C16.4463 8.32571 16.227 8.09349 15.961 7.92627L3.195 0.264345C2.9117 0.0926399 2.58722 0.00127411 2.25618 0Z" fill="white"/>
</svg>
