<svg width="39" height="43" viewBox="0 0 39 43" fill="none" xmlns="http://www.w3.org/2000/svg">
<path d="M36.8326 9.13109L22.515 0.81076C21.5988 0.279684 20.5586 0 19.4996 0C18.4406 0 17.4003 0.279684 16.4841 0.81076L2.16751 9.13109C2.11112 9.16418 2.06435 9.21143 2.03186 9.26817C1.99937 9.3249 1.98228 9.38915 1.98228 9.45453C1.98228 9.51991 1.99937 9.58415 2.03186 9.64089C2.06435 9.69763 2.11112 9.74488 2.16751 9.77797L19.3125 19.8636C19.3702 19.8976 19.4359 19.9155 19.5029 19.9155C19.5698 19.9155 19.6355 19.8976 19.6932 19.8636L36.8345 9.77797C36.8907 9.74472 36.9374 9.69733 36.9697 9.6405C37.002 9.58367 37.0189 9.51937 37.0187 9.45399C37.0186 9.38861 37.0013 9.32442 36.9686 9.26777C36.936 9.21113 36.8891 9.16401 36.8326 9.13109ZM19.5 11.2527C18.2579 11.2527 17.25 10.5814 17.25 9.75265C17.25 8.9239 18.2579 8.25265 19.5 8.25265C20.7422 8.25265 21.75 8.9239 21.75 9.75265C21.75 10.5814 20.7422 11.2527 19.5 11.2527Z" fill="white"/>
<path d="M17.8125 22.391L0.562501 12.3288C0.505522 12.2959 0.440891 12.2786 0.375097 12.2786C0.309303 12.2785 0.244663 12.2958 0.187667 12.3287C0.130671 12.3616 0.0833252 12.4089 0.0503845 12.4658C0.0174438 12.5228 6.74453e-05 12.5874 0 12.6532V28.9582C0.00141535 29.7438 0.208471 30.5154 0.600576 31.1961C0.99268 31.8769 1.55617 32.4431 2.235 32.8385L17.4375 41.9539C17.4945 41.9868 17.5591 42.0041 17.6249 42.0041C17.6907 42.0041 17.7554 41.9868 17.8124 41.954C17.8694 41.9211 17.9167 41.8738 17.9497 41.8169C17.9826 41.7599 18 41.6953 18 41.6295V22.7154C18 22.6496 17.9826 22.585 17.9497 22.5281C17.9168 22.4712 17.8695 22.4239 17.8125 22.391ZM4.50001 31.5026C3.67126 31.5026 3.00001 30.4948 3.00001 29.2526C3.00001 28.0104 3.67126 27.0026 4.50001 27.0026C5.32876 27.0026 6.00001 28.0104 6.00001 29.2526C6.00001 30.4948 5.32876 31.5026 4.50001 31.5026ZM13.5 28.5026C12.6713 28.5026 12 27.4948 12 26.2526C12 25.0104 12.6713 24.0026 13.5 24.0026C14.3288 24.0026 15 25.0104 15 26.2526C15 27.4948 14.3288 28.5026 13.5 28.5026Z" fill="white"/>
<path d="M38.4376 12.3316L21.1876 22.4613C21.1307 22.4941 21.0835 22.5413 21.0506 22.598C21.0177 22.6548 21.0003 22.7192 21.0001 22.7848V41.6276C21.0001 41.6934 21.0175 41.758 21.0504 41.815C21.0834 41.8719 21.1307 41.9192 21.1877 41.9521C21.2447 41.985 21.3094 42.0023 21.3752 42.0022C21.441 42.0022 21.5056 41.9849 21.5626 41.952L36.7642 32.8367C37.4429 32.4415 38.0064 31.8756 38.3986 31.1952C38.7909 30.5148 38.9983 29.7436 39.0001 28.9582V12.6588C39.0005 12.5928 38.9835 12.5278 38.9508 12.4705C38.918 12.4131 38.8707 12.3654 38.8137 12.3322C38.7566 12.299 38.6917 12.2815 38.6257 12.2814C38.5597 12.2813 38.4948 12.2986 38.4376 12.3316ZM25.5001 36.7526C24.6713 36.7526 24.0001 35.7448 24.0001 34.5026C24.0001 33.2604 24.6713 32.2526 25.5001 32.2526C26.3288 32.2526 27.0001 33.2604 27.0001 34.5026C27.0001 35.7448 26.3288 36.7526 25.5001 36.7526ZM25.5001 28.5026C24.6713 28.5026 24.0001 27.4948 24.0001 26.2526C24.0001 25.0104 24.6713 24.0026 25.5001 24.0026C26.3288 24.0026 27.0001 25.0104 27.0001 26.2526C27.0001 27.4948 26.3288 28.5026 25.5001 28.5026ZM34.5001 31.5026C33.6713 31.5026 33.0001 30.4948 33.0001 29.2526C33.0001 28.0104 33.6713 27.0026 34.5001 27.0026C35.3288 27.0026 36.0001 28.0104 36.0001 29.2526C36.0001 30.4948 35.3288 31.5026 34.5001 31.5026ZM34.5001 23.2526C33.6713 23.2526 33.0001 22.2448 33.0001 21.0026C33.0001 19.7604 33.6713 18.7526 34.5001 18.7526C35.3288 18.7526 36.0001 19.7604 36.0001 21.0026C36.0001 22.2448 35.3288 23.2526 34.5001 23.2526Z" fill="white"/>
</svg>
