<svg width="41" height="48" viewBox="0 0 41 48" fill="none" xmlns="http://www.w3.org/2000/svg">
<path d="M27.5 11.9251C27.5 11.9251 30.1644 10.6365 20.5 10.6365C17.0388 10.6365 13.6554 11.6442 10.7775 13.5321C7.89967 15.4201 5.65665 18.1035 4.33212 21.2431C3.00758 24.3827 2.66102 27.8373 3.33627 31.1703C4.01151 34.5032 5.67822 37.5647 8.12564 39.9677C10.5731 42.3706 13.6913 44.007 17.0859 44.67C20.4806 45.3329 23.9993 44.9927 27.197 43.6922C30.3947 42.3918 33.1278 40.1895 35.0507 37.364C36.9736 34.5385 38 31.2165 38 27.8183" stroke="white" stroke-width="5" stroke-miterlimit="10" stroke-linecap="round"/>
<path d="M20.5 3L30.2222 11.5909L20.5 20.1818" stroke="white" stroke-width="5" stroke-linecap="round" stroke-linejoin="round"/>
</svg>
